<svg width="118" height="81" viewBox="0 0 118 81" fill="none" xmlns="http://www.w3.org/2000/svg">
<g filter="url(#filter0_d_108_568)">
<path d="M94 61H24C21.8 61 20 59.2 20 57V24C20 21.8 21.8 20 24 20H94C96.2 20 98 21.8 98 24V57C98 59.2 96.2 61 94 61Z" fill="#A5A6A7"/>
</g>
<path d="M28 57H26C24.9 57 24 56.1 24 55V54C24 52.9 24.9 52 26 52H28C29.1 52 30 52.9 30 54V55C30 56.1 29.1 57 28 57Z" fill="white"/>
<path d="M36 57H34C32.9 57 32 56.1 32 55V54C32 52.9 32.9 52 34 52H36C37.1 52 38 52.9 38 54V55C38 56.1 37.1 57 36 57Z" fill="white"/>
<path d="M84 57H82C80.9 57 80 56.1 80 55V54C80 52.9 80.9 52 82 52H84C85.1 52 86 52.9 86 54V55C86 56.1 85.1 57 84 57Z" fill="white"/>
<path d="M92 57H90C88.9 57 88 56.1 88 55V54C88 52.9 88.9 52 90 52H92C93.1 52 94 52.9 94 54V55C94 56.1 93.1 57 92 57Z" fill="white"/>
<path d="M76 57H42C40.9 57 40 56.1 40 55V54C40 52.9 40.9 52 42 52H76C77.1 52 78 52.9 78 54V55C78 56.1 77.1 57 76 57Z" fill="white"/>
<path d="M44 50H42C40.9 50 40 49.1 40 48V47C40 45.9 40.9 45 42 45H44C45.1 45 46 45.9 46 47V48C46 49.1 45.1 50 44 50Z" fill="white"/>
<path d="M52 50H50C48.9 50 48 49.1 48 48V47C48 45.9 48.9 45 50 45H52C53.1 45 54 45.9 54 47V48C54 49.1 53.1 50 52 50Z" fill="white"/>
<path d="M60 50H58C56.9 50 56 49.1 56 48V47C56 45.9 56.9 45 58 45H60C61.1 45 62 45.9 62 47V48C62 49.1 61.1 50 60 50Z" fill="white"/>
<path d="M68 50H66C64.9 50 64 49.1 64 48V47C64 45.9 64.9 45 66 45H68C69.1 45 70 45.9 70 47V48C70 49.1 69.1 50 68 50Z" fill="white"/>
<path d="M76 50H74C72.9 50 72 49.1 72 48V47C72 45.9 72.9 45 74 45H76C77.1 45 78 45.9 78 47V48C78 49.1 77.1 50 76 50Z" fill="white"/>
<path d="M92 50H82C80.9 50 80 49.1 80 48V47C80 45.9 80.9 45 82 45H92C93.1 45 94 45.9 94 47V48C94 49.1 93.1 50 92 50Z" fill="white"/>
<path d="M36 50H26C24.9 50 24 49.1 24 48V47C24 45.9 24.9 45 26 45H36C37.1 45 38 45.9 38 47V48C38 49.1 37.1 50 36 50Z" fill="white"/>
<path d="M28 43H26C24.9 43 24 42.1 24 41V40C24 38.9 24.9 38 26 38H28C29.1 38 30 38.9 30 40V41C30 42.1 29.1 43 28 43Z" fill="white"/>
<path d="M36 43H34C32.9 43 32 42.1 32 41V40C32 38.9 32.9 38 34 38H36C37.1 38 38 38.9 38 40V41C38 42.1 37.1 43 36 43Z" fill="white"/>
<path d="M44 43H42C40.9 43 40 42.1 40 41V40C40 38.9 40.9 38 42 38H44C45.1 38 46 38.9 46 40V41C46 42.1 45.1 43 44 43Z" fill="white"/>
<path d="M52 43H50C48.9 43 48 42.1 48 41V40C48 38.9 48.9 38 50 38H52C53.1 38 54 38.9 54 40V41C54 42.1 53.1 43 52 43Z" fill="white"/>
<path d="M60 43H58C56.9 43 56 42.1 56 41V40C56 38.9 56.9 38 58 38H60C61.1 38 62 38.9 62 40V41C62 42.1 61.1 43 60 43Z" fill="white"/>
<path d="M68 43H66C64.9 43 64 42.1 64 41V40C64 38.9 64.9 38 66 38H68C69.1 38 70 38.9 70 40V41C70 42.1 69.1 43 68 43Z" fill="white"/>
<path d="M76 43H74C72.9 43 72 42.1 72 41V40C72 38.9 72.9 38 74 38H76C77.1 38 78 38.9 78 40V41C78 42.1 77.1 43 76 43Z" fill="white"/>
<path d="M84 43H82C80.9 43 80 42.1 80 41V40C80 38.9 80.9 38 82 38H84C85.1 38 86 38.9 86 40V41C86 42.1 85.1 43 84 43Z" fill="white"/>
<path d="M92 43H90C88.9 43 88 42.1 88 41V40C88 38.9 88.9 38 90 38H92C93.1 38 94 38.9 94 40V41C94 42.1 93.1 43 92 43Z" fill="white"/>
<path d="M28 36H26C24.9 36 24 35.1 24 34V33C24 31.9 24.9 31 26 31H28C29.1 31 30 31.9 30 33V34C30 35.1 29.1 36 28 36Z" fill="white"/>
<path d="M36 36H34C32.9 36 32 35.1 32 34V33C32 31.9 32.9 31 34 31H36C37.1 31 38 31.9 38 33V34C38 35.1 37.1 36 36 36Z" fill="white"/>
<path d="M44 36H42C40.9 36 40 35.1 40 34V33C40 31.9 40.9 31 42 31H44C45.1 31 46 31.9 46 33V34C46 35.1 45.1 36 44 36Z" fill="white"/>
<path d="M52 36H50C48.9 36 48 35.1 48 34V33C48 31.9 48.9 31 50 31H52C53.1 31 54 31.9 54 33V34C54 35.1 53.1 36 52 36Z" fill="white"/>
<path d="M60 36H58C56.9 36 56 35.1 56 34V33C56 31.9 56.9 31 58 31H60C61.1 31 62 31.9 62 33V34C62 35.1 61.1 36 60 36Z" fill="white"/>
<path d="M68 36H66C64.9 36 64 35.1 64 34V33C64 31.9 64.9 31 66 31H68C69.1 31 70 31.9 70 33V34C70 35.1 69.1 36 68 36Z" fill="white"/>
<path d="M76 36H74C72.9 36 72 35.1 72 34V33C72 31.9 72.9 31 74 31H76C77.1 31 78 31.9 78 33V34C78 35.1 77.1 36 76 36Z" fill="white"/>
<path d="M84 36H82C80.9 36 80 35.1 80 34V33C80 31.9 80.9 31 82 31H84C85.1 31 86 31.9 86 33V34C86 35.1 85.1 36 84 36Z" fill="white"/>
<path d="M92 36H90C88.9 36 88 35.1 88 34V33C88 31.9 88.9 31 90 31H92C93.1 31 94 31.9 94 33V34C94 35.1 93.1 36 92 36Z" fill="white"/>
<path d="M28 29H26C24.9 29 24 28.1 24 27V26C24 24.9 24.9 24 26 24H28C29.1 24 30 24.9 30 26V27C30 28.1 29.1 29 28 29Z" fill="white"/>
<path d="M36 29H34C32.9 29 32 28.1 32 27V26C32 24.9 32.9 24 34 24H36C37.1 24 38 24.9 38 26V27C38 28.1 37.1 29 36 29Z" fill="white"/>
<path d="M44 29H42C40.9 29 40 28.1 40 27V26C40 24.9 40.9 24 42 24H44C45.1 24 46 24.9 46 26V27C46 28.1 45.1 29 44 29Z" fill="white"/>
<path d="M52 29H50C48.9 29 48 28.1 48 27V26C48 24.9 48.9 24 50 24H52C53.1 24 54 24.9 54 26V27C54 28.1 53.1 29 52 29Z" fill="white"/>
<path d="M60 29H58C56.9 29 56 28.1 56 27V26C56 24.9 56.9 24 58 24H60C61.1 24 62 24.9 62 26V27C62 28.1 61.1 29 60 29Z" fill="white"/>
<path d="M68 29H66C64.9 29 64 28.1 64 27V26C64 24.9 64.9 24 66 24H68C69.1 24 70 24.9 70 26V27C70 28.1 69.1 29 68 29Z" fill="white"/>
<path d="M76 29H74C72.9 29 72 28.1 72 27V26C72 24.9 72.9 24 74 24H76C77.1 24 78 24.9 78 26V27C78 28.1 77.1 29 76 29Z" fill="white"/>
<path d="M92 29H82C80.9 29 80 28.1 80 27V26C80 24.9 80.9 24 82 24H92C93.1 24 94 24.9 94 26V27C94 28.1 93.1 29 92 29Z" fill="white"/>
<defs>
<filter id="filter0_d_108_568" x="0" y="0" width="118" height="81" filterUnits="userSpaceOnUse" color-interpolation-filters="sRGB">
<feFlood flood-opacity="0" result="BackgroundImageFix"/>
<feColorMatrix in="SourceAlpha" type="matrix" values="0 0 0 0 0 0 0 0 0 0 0 0 0 0 0 0 0 0 127 0" result="hardAlpha"/>
<feOffset/>
<feGaussianBlur stdDeviation="10"/>
<feComposite in2="hardAlpha" operator="out"/>
<feColorMatrix type="matrix" values="0 0 0 0 0 0 0 0 0 0 0 0 0 0 0 0 0 0 0.15 0"/>
<feBlend mode="normal" in2="BackgroundImageFix" result="effect1_dropShadow_108_568"/>
<feBlend mode="normal" in="SourceGraphic" in2="effect1_dropShadow_108_568" result="shape"/>
</filter>
</defs>
</svg>
